<?xml version="1.0" encoding="utf-8"?>
<!-- Generator: Adobe Illustrator 26.0.1, SVG Export Plug-In . SVG Version: 6.00 Build 0)  -->
<svg version="1.1" id="Layer_1" xmlns="http://www.w3.org/2000/svg" xmlns:xlink="http://www.w3.org/1999/xlink" x="0px" y="0px"
	 viewBox="0 0 1069 279" style="enable-background:new 0 0 1069 279;" xml:space="preserve">
<style type="text/css">
	.st0{stroke:#000000;stroke-width:35;stroke-opacity:0.5;}
	.st1{stroke:#FF5500;stroke-width:35;}
	.st2{stroke:#000000;stroke-width:33;stroke-opacity:0.5;}
	.st3{fill:#C96C18;}
	.st4{fill:#676464;}
	.st5{fill:#818C98;}
	.st6{fill:none;stroke:#CC3333;stroke-width:26.2173;}
	.st7{fill:none;stroke:#9DA6AF;stroke-width:26.2173;}
	.st8{fill:#CC3333;}
</style>
<g>
	<path class="st0" d="M45.5,65v166 M102.5,65v113 M159.5,65v166 M216.5,65v33 M274.5,118v113"/>
	<path class="st1" d="M216.5,118v113"/>
	<path class="st2" d="M257,81.5h92"/>
</g>
<g id="logo">
	<g id="text">
		<path class="st3" d="M498.2,236c-4.1,0-7.2-1.5-10.3-4.8c-2.2-2.2-3.8-6.5-3.8-11.3c0-5.6,2.3-10.6,6.5-13.6
			c2.4-1.8,5.2-2.9,8.1-2.9s5.7,0.8,8.4,2.4l-2.3,6.7c-2-1.1-3.9-1.6-5.8-1.6c-4.1,0-6.9,3.4-6.9,8.8s3,9,7.1,9
			c2.3,0,4.3-0.8,6.8-2.4l1.5,6.4C504.7,234.9,501.9,236,498.2,236z"/>
		<path class="st3" d="M541.8,226.5c0,5.6-4.3,9.5-11,9.5c-4.6,0-8.1-2.2-9.6-5.6l4.9-4.3c1.6,2.3,3.3,3.5,5.2,3.5
			c2,0,3.3-1.1,3.3-2.9c0-1.9-1.4-2.2-3.4-3l-2-0.8c-4.6-1.8-7.1-5.4-7.1-9.9c0-5.4,4.2-9.2,10.5-9.2c3.9,0,6.9,1.5,8.7,2.6
			l-2.4,6.7c-2.4-1.6-4.5-2.4-6.2-2.4c-2.3,0-3.4,0.8-3.4,2.3c0,1.4,1.1,1.9,3,2.7l2.2,0.8C539.2,218.4,541.8,221.6,541.8,226.5z"/>
		<path class="st3" d="M563.1,229.1l-2.2,6.2h-7.7l11.3-30.9h6.5l11.3,30.9h-7.7l-2.2-6.2H563.1z M570.7,223.9l-0.8-2.6
			c-0.3-0.7-1-3.1-2.2-7.5c-1.1,4.3-1.8,6.9-2,7.6l-0.8,2.4H570.7z"/>
		<path class="st3" d="M597.2,235.3v-30.9h7.5v30.9H597.2z"/>
		<path class="st3" d="M623.1,235.3v-30.9h7.6v24.8H641v6.2h-17.9V235.3L623.1,235.3z"/>
	</g>
	<g id="shape">
		<path class="st4" d="M598.6,176.5l2.7-56.7l-13,4.2l1.5-49l-28.1,11.4l1.6,29.2l-12.1-2l0.8-26.6l0.1-0.3l6-2.6l-1-19.5
			c-6.5-4.6-15.3-6.9-26.1-6.9c-5.4,0-11.1,0.5-17.1,1.8l-0.7,14.5l5.3,0.4l2,47.8h-0.4c-3.9,0-8,0-12.1-0.1h-0.4l2-44.9l-31.2-2.3
			L477.8,96l-7.2-0.7l-1.8-34.5l-31.6,1.4l-0.8,30.3l8.3-1.4l-0.4,37.3v0.4l-12.1-3.3l0.8-29l-13.4,2.3l-0.1,21.7l-11.8-1l4.8,56.5
			l-3.3,0.4l-5.2-60.3l12.1,0.8l0.1-20.9l16.7-2.9l1.1-33.9l37.7-2l1.9,34.7l1,0.1c0.3-4.6,0.4-9.2,0.5-13.7
			c0.1-2.3,0.1-4.8,0.3-7.1v-0.4l34.6,2.4l0.8-16.8h0.3c7.1-1.5,13.8-2.3,20.1-2.3c12.1,0,21.9,2.9,28.9,8.3l0.1,0.1l1.2,20.1
			l31.6-12.8l-1.5,49.3l13-4.3l-0.1,7.7l-2.6,54L598.6,176.5z M441.1,124.7l0.3-29.6c-0.8,0.1-1.5,0.3-2.3,0.4
			c-1,0.1-1.9,0.3-2.9,0.5l-0.8,27.1L441.1,124.7z M517.3,118.6l-1.9-41.3c-0.5,0-1.1-0.1-1.6-0.3c-0.1,0-0.4-0.1-0.5-0.1l-2,41.5
			L517.3,118.6z M560.1,111.7l-1.5-23.9l-3.1,1.4l-0.7,21.6L560.1,111.7z"/>
		<path class="st3" d="M428.6,196.5l1.2-20l-20.6-0.4l-0.4-3.1l21,0.3l1.6-24l0.1-0.1c6.4-2.7,13.3-4.2,20-4.2
			c1.8,0,3.5,0.1,5.3,0.3l-1.4-31.5l28.5-6.1v6.5l-1.1,54.2l7.6,0.1l9.4-33l18.1-0.8l2.3-9.6l18.3-0.8l0.7,33.1
			c1.8-0.1,3.7-0.1,5.6-0.1s3.8,0,5.6,0.1l-1.6-22.3l35.2-1.4h0.5l-3.8,42.9l21.4-3l-0.4,2.9l-24.8,3.8l4.1-43.4l-28.6,1.1l1.4,19.3
			c6.1,0.8,11.7,2.2,17,4.2l0.3,0.1v0.1c0,3.5,0.5,6.7,1.1,9.8v0.4l-20.2,2l-1-13.4c-1.6-0.3-3.5-0.3-5.6-0.3
			c-1.6,0-3.5,0.1-5.6,0.3l0.4,22.5h-47.2v-0.4c0.1-7.2,8-12.1,12.6-15.1c8.7-5.2,19-8.4,30.5-9.9l-0.4-30.1l-12.5,0.7l-2.4,9.5
			l-18.2,0.7l-9.4,33.1h-10l-0.3,23.1l-0.3,0.1l-53.2,1.8h-0.7V196.5z M433,176.5c-0.4,5.6-0.8,11.1-1.1,16.6l47.4-1.6l0.4-20.1
			l-11.1-0.1l0.3,6L433,176.5z M536.5,179.5l-0.4-18.9c-9.4,1.2-17.9,3.8-25.4,7.5c-4.8,2.6-10.6,5.8-13.8,11.3h39.6V179.5z
			 M465.5,173.7l-0.1-2.4l-6.9-0.1l-1.1-22.5c-1.8-0.3-3.5-0.3-5.3-0.3c-5.6,0-11.4,1.1-17.4,3.1l-1.4,21.7L465.5,173.7z
			 M554.7,170.3l13.4-1.4l-0.7-5.2c-4.3-1.6-9-2.6-13.6-3L554.7,170.3z M479.9,168.1l1.1-51.9l-0.1-4.5l-21.9,4.5l1.4,27.8l0.3,1.6
			c2.9,0.7,4.9,1.4,6.7,2.3l0.1,0.1l1.2,20C468.6,168.1,479.9,168.1,479.9,168.1z M461.4,168.1c1.1,0,2.4,0,3.7-0.1l-1.1-17.6
			c-1.2-0.4-2.3-0.8-3.5-1.1L461.4,168.1z"/>
	</g>
</g>
<g>
	<g>
		<path id="needle_00000050643817833867392630000002994121999782302872_" class="st5" d="M729.6,44.6c0.2-10.7,4.2-21.5,8.9-24
			s8.4,4,8.3,14.7c-0.1,3.8-0.6,7.8-1.6,11.5l-24.7,137.7c-0.1,1-1,1.6-2,1.5s-1.6-1-1.5-2L729.6,44.6z M737.4,45.7
			c1.6,0.2,3.4-3.5,4.1-8.2s-0.1-8.8-1.7-9.1c-1.6-0.2-3.4,3.5-4.1,8.2C735.1,41.4,735.8,45.5,737.4,45.7z"/>
		<g id="magnet_00000097496302036256213370000015808932554138588585_" transform="translate(17, 83)">
			<path class="st6" d="M727.1,76.8l0-28.7c0-15.4,12.5-29.8,27.8-31.2c18.1-1.6,33.3,12.7,33.3,30.5v29.4"/>
			<line id="end_00000116196098392099085660000002163753295533640088_" class="st7" x1="727.1" y1="80.3" x2="727.1" y2="103"/>
			<g transform="translate(35, 0)">
				<line id="end_00000147201359111525143130000008802681888913263528_" class="st7" x1="788.3" y1="80.3" x2="788.3" y2="103"/>
			</g>
		</g>
	</g>
	<g>
		<path class="st8" d="M741.3,205.6v11.2H753v-11.2h6.4v29.1H753v-12.5h-11.8v12.5h-6.4v-29.1H741.3z"/>
		<path class="st8" d="M763.1,220.1c0.1-1.4,0.4-2.5,1-3.4c0.6-0.9,1.4-1.6,2.3-2.2c0.9-0.5,2-0.9,3.1-1.2c1.2-0.2,2.3-0.3,3.5-0.3
			c1.1,0,2.1,0.1,3.2,0.2c1.1,0.1,2.1,0.4,3,0.9c0.9,0.4,1.6,1,2.2,1.8c0.6,0.8,0.9,1.8,0.9,3.1V230c0,0.9,0.1,1.9,0.2,2.7
			c0.1,0.9,0.3,1.5,0.6,2h-5.9c-0.1-0.3-0.2-0.7-0.3-1c-0.1-0.3-0.1-0.7-0.1-1c-0.9,0.9-2,1.6-3.3,2c-1.2,0.4-2.5,0.6-3.8,0.6
			c-1,0-1.9-0.1-2.8-0.4c-0.9-0.2-1.6-0.6-2.3-1.1c-0.7-0.5-1.2-1.2-1.5-2c-0.4-0.8-0.6-1.7-0.6-2.8c0-1.2,0.2-2.2,0.6-3
			c0.4-0.8,1-1.4,1.6-1.9c0.7-0.5,1.4-0.8,2.3-1c0.9-0.2,1.7-0.4,2.6-0.5c0.9-0.1,1.7-0.2,2.6-0.3c0.8-0.1,1.6-0.2,2.2-0.4
			c0.7-0.2,1.2-0.4,1.5-0.7c0.4-0.3,0.6-0.8,0.5-1.4c0-0.6-0.1-1.1-0.3-1.5s-0.5-0.7-0.8-0.9c-0.3-0.2-0.7-0.3-1.2-0.4
			c-0.4-0.1-0.9-0.1-1.4-0.1c-1.1,0-2,0.2-2.7,0.7c-0.7,0.5-1,1.3-1.1,2.4H763.1z M776.5,224.3c-0.2,0.2-0.5,0.4-0.9,0.5
			c-0.4,0.1-0.8,0.2-1.2,0.3c-0.4,0.1-0.9,0.1-1.3,0.2c-0.5,0.1-0.9,0.1-1.4,0.2c-0.4,0.1-0.9,0.2-1.3,0.3c-0.4,0.1-0.8,0.3-1.1,0.5
			c-0.3,0.2-0.6,0.5-0.8,0.9c-0.2,0.4-0.3,0.8-0.3,1.3c0,0.5,0.1,1,0.3,1.3c0.2,0.4,0.4,0.6,0.8,0.8c0.3,0.2,0.7,0.3,1.1,0.4
			c0.4,0.1,0.9,0.1,1.3,0.1c1.1,0,2-0.2,2.6-0.6c0.6-0.4,1.1-0.8,1.4-1.4c0.3-0.5,0.5-1.1,0.5-1.6c0.1-0.5,0.1-1,0.1-1.3V224.3z"/>
		<path class="st8" d="M793.1,240.9c-1.1,0.7-2.7,1.1-4.6,1.1c-0.6,0-1.2,0-1.8-0.1c-0.6,0-1.2-0.1-1.8-0.1V237
			c0.5,0.1,1.1,0.1,1.7,0.2c0.6,0.1,1.1,0.1,1.7,0c0.8-0.1,1.3-0.4,1.7-0.9c0.4-0.5,0.5-1.1,0.5-1.7c0-0.5-0.1-0.9-0.2-1.3
			l-7.4-19.7h6.1l4.8,14.4h0.1l4.6-14.4h6l-8.8,23.6C795.1,238.9,794.2,240.2,793.1,240.9z"/>
		<path class="st8" d="M810.2,229.4c0.3,0.4,0.6,0.8,1,1.1c0.4,0.3,0.9,0.5,1.4,0.6c0.5,0.1,1.1,0.2,1.6,0.2c0.4,0,0.8,0,1.3-0.1
			c0.4-0.1,0.9-0.2,1.2-0.4c0.4-0.2,0.7-0.5,0.9-0.8c0.2-0.3,0.4-0.8,0.4-1.3c0-0.9-0.6-1.5-1.7-2c-1.2-0.4-2.8-0.9-4.8-1.3
			c-0.8-0.2-1.7-0.4-2.5-0.7c-0.8-0.3-1.5-0.6-2.1-1c-0.6-0.4-1.1-0.9-1.5-1.6c-0.4-0.6-0.6-1.4-0.6-2.3c0-1.4,0.3-2.5,0.8-3.3
			c0.5-0.9,1.2-1.6,2.1-2.1c0.9-0.5,1.8-0.9,2.9-1.1c1.1-0.2,2.2-0.3,3.3-0.3c1.1,0,2.2,0.1,3.3,0.3c1.1,0.2,2,0.6,2.9,1.1
			c0.8,0.5,1.5,1.2,2.1,2.1c0.6,0.9,0.9,1.9,1,3.2h-5.5c-0.1-1.1-0.5-1.9-1.3-2.3c-0.8-0.4-1.7-0.6-2.7-0.6c-0.3,0-0.7,0-1.1,0.1
			c-0.4,0-0.7,0.1-1,0.3c-0.3,0.1-0.6,0.3-0.8,0.6c-0.2,0.3-0.3,0.6-0.3,1c0,0.5,0.2,0.9,0.6,1.3s0.9,0.6,1.5,0.8
			c0.6,0.2,1.3,0.4,2.1,0.5c0.8,0.2,1.6,0.3,2.4,0.5c0.8,0.2,1.7,0.4,2.5,0.7c0.8,0.3,1.5,0.6,2.1,1.1s1.1,1,1.5,1.7
			c0.4,0.7,0.6,1.5,0.6,2.5c0,1.4-0.3,2.5-0.8,3.5c-0.6,0.9-1.3,1.7-2.2,2.3c-0.9,0.6-1.9,1-3.1,1.2s-2.3,0.3-3.5,0.3
			c-1.2,0-2.4-0.1-3.6-0.4c-1.2-0.2-2.2-0.7-3.1-1.2c-0.9-0.6-1.7-1.3-2.2-2.3c-0.6-0.9-0.9-2.1-1-3.5h5.5
			C809.8,228.4,809.9,229,810.2,229.4z"/>
		<path class="st8" d="M837.9,213.6v3.9h-4.2v10.4c0,1,0.2,1.6,0.5,2c0.3,0.3,1,0.5,2,0.5c0.3,0,0.6,0,0.9,0c0.3,0,0.6-0.1,0.9-0.1
			v4.5c-0.5,0.1-1,0.1-1.6,0.2c-0.6,0-1.2,0-1.8,0c-0.9,0-1.7-0.1-2.5-0.2c-0.8-0.1-1.5-0.4-2.1-0.7c-0.6-0.4-1.1-0.9-1.4-1.5
			c-0.4-0.7-0.5-1.5-0.5-2.6v-12.4h-3.5v-3.9h3.5v-6.3h5.8v6.3H837.9z"/>
		<path class="st8" d="M839.8,220.1c0.1-1.4,0.4-2.5,1-3.4c0.6-0.9,1.4-1.6,2.3-2.2c0.9-0.5,2-0.9,3.1-1.2c1.2-0.2,2.3-0.3,3.5-0.3
			c1.1,0,2.1,0.1,3.2,0.2c1.1,0.1,2.1,0.4,3,0.9c0.9,0.4,1.6,1,2.2,1.8c0.6,0.8,0.9,1.8,0.9,3.1V230c0,0.9,0.1,1.9,0.2,2.7
			c0.1,0.9,0.3,1.5,0.6,2h-5.9c-0.1-0.3-0.2-0.7-0.3-1c-0.1-0.3-0.1-0.7-0.1-1c-0.9,0.9-2,1.6-3.3,2c-1.2,0.4-2.5,0.6-3.8,0.6
			c-1,0-1.9-0.1-2.8-0.4c-0.9-0.2-1.6-0.6-2.3-1.1c-0.7-0.5-1.2-1.2-1.5-2c-0.4-0.8-0.6-1.7-0.6-2.8c0-1.2,0.2-2.2,0.6-3
			c0.4-0.8,1-1.4,1.6-1.9c0.7-0.5,1.4-0.8,2.3-1c0.9-0.2,1.7-0.4,2.6-0.5c0.9-0.1,1.7-0.2,2.6-0.3c0.8-0.1,1.6-0.2,2.2-0.4
			c0.7-0.2,1.2-0.4,1.5-0.7c0.4-0.3,0.6-0.8,0.5-1.4c0-0.6-0.1-1.1-0.3-1.5s-0.5-0.7-0.8-0.9c-0.3-0.2-0.7-0.3-1.2-0.4
			c-0.4-0.1-0.9-0.1-1.4-0.1c-1.1,0-2,0.2-2.7,0.7c-0.7,0.5-1,1.3-1.1,2.4H839.8z M853.1,224.3c-0.2,0.2-0.5,0.4-0.9,0.5
			c-0.4,0.1-0.8,0.2-1.2,0.3c-0.4,0.1-0.9,0.1-1.3,0.2c-0.5,0.1-0.9,0.1-1.4,0.2c-0.4,0.1-0.9,0.2-1.3,0.3c-0.4,0.1-0.8,0.3-1.1,0.5
			c-0.3,0.2-0.6,0.5-0.8,0.9c-0.2,0.4-0.3,0.8-0.3,1.3c0,0.5,0.1,1,0.3,1.3c0.2,0.4,0.4,0.6,0.8,0.8c0.3,0.2,0.7,0.3,1.1,0.4
			c0.4,0.1,0.9,0.1,1.3,0.1c1.1,0,2-0.2,2.6-0.6c0.6-0.4,1.1-0.8,1.4-1.4c0.3-0.5,0.5-1.1,0.5-1.6c0.1-0.5,0.1-1,0.1-1.3V224.3z"/>
		<path class="st8" d="M872.2,217.4c-0.9,0-1.7,0.2-2.3,0.6c-0.6,0.4-1.1,1-1.5,1.6c-0.4,0.7-0.7,1.4-0.8,2.2
			c-0.2,0.8-0.2,1.6-0.2,2.4c0,0.8,0.1,1.5,0.2,2.3c0.2,0.8,0.4,1.5,0.8,2.1c0.4,0.6,0.9,1.2,1.5,1.6s1.4,0.6,2.3,0.6
			c1.4,0,2.4-0.4,3.2-1.2c0.7-0.8,1.2-1.8,1.4-3.1h5.6c-0.4,2.8-1.5,4.9-3.3,6.4c-1.8,1.5-4.1,2.2-6.9,2.2c-1.6,0-3-0.3-4.3-0.8
			c-1.3-0.5-2.4-1.3-3.4-2.2c-0.9-0.9-1.6-2.1-2.2-3.4c-0.5-1.3-0.8-2.8-0.8-4.3c0-1.6,0.2-3.1,0.7-4.5c0.5-1.4,1.2-2.6,2.1-3.6
			c0.9-1,2-1.8,3.4-2.4c1.3-0.6,2.8-0.9,4.6-0.9c1.2,0,2.4,0.2,3.6,0.5c1.2,0.3,2.2,0.8,3.1,1.5c0.9,0.7,1.6,1.5,2.2,2.5
			c0.6,1,0.9,2.2,1,3.5h-5.7C876.1,218.6,874.6,217.4,872.2,217.4z"/>
		<path class="st8" d="M890.6,205.6v15.6l7.3-7.6h6.8l-7.9,7.7l8.8,13.3h-7l-5.8-9.4l-2.2,2.2v7.2h-5.8v-29.1H890.6z"/>
		<path class="st8" d="M935.1,234.4c-1.4,0.6-2.8,0.9-4.2,0.9c-2.2,0-4.2-0.4-6-1.2c-1.8-0.8-3.3-1.8-4.5-3.2
			c-1.2-1.4-2.2-3-2.8-4.8c-0.7-1.8-1-3.8-1-5.9c0-2.2,0.3-4.2,1-6c0.7-1.9,1.6-3.5,2.8-4.9c1.2-1.4,2.7-2.5,4.5-3.3
			c1.8-0.8,3.8-1.2,6-1.2c1.5,0,2.9,0.2,4.3,0.7c1.4,0.4,2.7,1.1,3.8,2c1.1,0.9,2.1,1.9,2.8,3.2c0.7,1.3,1.2,2.7,1.3,4.4h-6.1
			c-0.4-1.6-1.1-2.8-2.2-3.7c-1.1-0.8-2.4-1.2-3.9-1.2c-1.4,0-2.7,0.3-3.7,0.8c-1,0.6-1.8,1.3-2.4,2.2c-0.6,0.9-1.1,2-1.4,3.2
			c-0.3,1.2-0.4,2.4-0.4,3.7c0,1.2,0.1,2.4,0.4,3.6c0.3,1.2,0.7,2.2,1.4,3.1c0.6,0.9,1.4,1.7,2.4,2.2c1,0.6,2.2,0.8,3.7,0.8
			c2.1,0,3.8-0.5,4.9-1.6c1.2-1.1,1.8-2.6,2-4.7h-6.4v-4.8h12.2v15.7h-4.1l-0.7-3.3C937.8,232.8,936.5,233.8,935.1,234.4z"/>
		<path class="st8" d="M952.9,213.6v3.9h0.1c0.3-0.7,0.6-1.3,1.1-1.8c0.5-0.6,1-1,1.6-1.4c0.6-0.4,1.2-0.7,1.9-0.9
			c0.7-0.2,1.4-0.3,2.1-0.3c0.4,0,0.8,0.1,1.3,0.2v5.4c-0.3-0.1-0.6-0.1-1-0.1c-0.4,0-0.7-0.1-1.1-0.1c-1.1,0-2,0.2-2.7,0.5
			c-0.7,0.4-1.3,0.8-1.8,1.4c-0.4,0.6-0.8,1.3-1,2.1c-0.2,0.8-0.3,1.7-0.3,2.6v9.5h-5.8v-21H952.9z"/>
		<path class="st8" d="M962.4,219.6c0.5-1.4,1.2-2.5,2.2-3.5c0.9-1,2.1-1.7,3.4-2.2c1.3-0.5,2.8-0.8,4.5-0.8c1.7,0,3.2,0.3,4.5,0.8
			c1.3,0.5,2.5,1.3,3.4,2.2c0.9,1,1.7,2.1,2.2,3.5c0.5,1.4,0.8,2.9,0.8,4.6c0,1.7-0.3,3.2-0.8,4.6c-0.5,1.4-1.2,2.5-2.2,3.5
			c-0.9,1-2.1,1.7-3.4,2.2c-1.3,0.5-2.8,0.8-4.5,0.8c-1.7,0-3.1-0.3-4.5-0.8c-1.3-0.5-2.5-1.3-3.4-2.2c-0.9-1-1.7-2.1-2.2-3.5
			c-0.5-1.4-0.8-2.9-0.8-4.6C961.6,222.5,961.9,220.9,962.4,219.6z M967.6,226.6c0.2,0.8,0.4,1.5,0.8,2.2c0.4,0.6,0.9,1.1,1.6,1.5
			c0.7,0.4,1.5,0.6,2.4,0.6c1,0,1.8-0.2,2.5-0.6c0.7-0.4,1.2-0.9,1.6-1.5c0.4-0.6,0.7-1.4,0.8-2.2c0.2-0.8,0.2-1.6,0.2-2.5
			c0-0.8-0.1-1.7-0.2-2.5c-0.2-0.8-0.4-1.5-0.8-2.2c-0.4-0.6-0.9-1.1-1.6-1.5c-0.7-0.4-1.5-0.6-2.5-0.6c-1,0-1.8,0.2-2.4,0.6
			c-0.7,0.4-1.2,0.9-1.6,1.5c-0.4,0.6-0.7,1.3-0.8,2.2c-0.2,0.8-0.2,1.6-0.2,2.5C967.4,225,967.5,225.8,967.6,226.6z"/>
		<path class="st8" d="M1000.2,234.6v-2.9h-0.1c-0.7,1.2-1.7,2.1-2.8,2.6c-1.2,0.5-2.4,0.8-3.6,0.8c-1.5,0-2.8-0.2-3.8-0.6
			c-1-0.4-1.8-1-2.3-1.7c-0.6-0.7-1-1.7-1.2-2.7c-0.2-1.1-0.3-2.3-0.3-3.6v-12.9h5.8v11.9c0,1.7,0.3,3,0.8,3.9
			c0.5,0.9,1.5,1.3,2.9,1.3c1.6,0,2.7-0.5,3.4-1.4c0.7-0.9,1.1-2.5,1.1-4.6v-11h5.8v21H1000.2z"/>
		<path class="st8" d="M1014.7,213.6v2.7h0.1c0.7-1.1,1.6-2,2.7-2.5c1.1-0.5,2.3-0.8,3.6-0.8c1.7,0,3.1,0.3,4.3,0.9
			c1.2,0.6,2.2,1.5,3,2.5c0.8,1,1.4,2.2,1.7,3.6c0.4,1.4,0.6,2.8,0.6,4.3c0,1.4-0.2,2.8-0.6,4.1c-0.4,1.3-1,2.5-1.7,3.5
			c-0.8,1-1.7,1.8-2.9,2.4c-1.2,0.6-2.5,0.9-4,0.9c-1.3,0-2.5-0.3-3.6-0.8c-1.1-0.5-2-1.3-2.7-2.3h-0.1v10h-5.8v-28.4H1014.7z
			 M1022.2,230.3c0.6-0.4,1.2-0.9,1.5-1.5c0.4-0.6,0.7-1.3,0.8-2.1c0.2-0.8,0.2-1.6,0.2-2.5c0-0.8-0.1-1.7-0.3-2.5
			c-0.2-0.8-0.5-1.5-0.9-2.2c-0.4-0.6-0.9-1.2-1.6-1.5c-0.6-0.4-1.4-0.6-2.3-0.6c-0.9,0-1.7,0.2-2.4,0.6c-0.6,0.4-1.2,0.9-1.5,1.5
			c-0.4,0.6-0.7,1.3-0.8,2.2c-0.2,0.8-0.2,1.7-0.2,2.5c0,0.8,0.1,1.7,0.3,2.5s0.5,1.5,0.9,2.1c0.4,0.6,0.9,1.1,1.6,1.5
			c0.7,0.4,1.4,0.6,2.4,0.6C1020.7,230.8,1021.5,230.7,1022.2,230.3z"/>
	</g>
</g>
</svg>
